<svg xmlns="http://www.w3.org/2000/svg" viewBox="0 0 200 200">
  <g fill="none" stroke="#181818" stroke-linecap="round" stroke-linejoin="round">
    <circle cx="100" cy="100" r="72" stroke-width="3"/>
    <circle cx="100" cy="100" r="58" stroke-width="1.5" opacity=".55"/>
    <circle cx="100.00" cy="28.00" r="5.3" fill="#333333" stroke="#181818" stroke-width="2"/><circle cx="150.91" cy="49.09" r="5.3" fill="#333333" stroke="#181818" stroke-width="2"/><circle cx="172.00" cy="100.00" r="5.3" fill="#333333" stroke="#181818" stroke-width="2"/><circle cx="150.91" cy="150.91" r="5.3" fill="#333333" stroke="#181818" stroke-width="2"/><circle cx="100.00" cy="172.00" r="5.3" fill="#333333" stroke="#181818" stroke-width="2"/><circle cx="49.09" cy="150.91" r="5.3" fill="#333333" stroke="#181818" stroke-width="2"/><circle cx="28.00" cy="100.00" r="5.3" fill="#333333" stroke="#181818" stroke-width="2"/><circle cx="49.09" cy="49.09" r="5.3" fill="#333333" stroke="#181818" stroke-width="2"/>
    <path d="M55 122 L66 72 L90 103 L100 52 L110 103 L134 72 L145 122 Z" fill="#333333" stroke="#181818" stroke-width="3"/>
    <path d="M57 125 H143 L136 143 H64 Z" fill="#181818" stroke="#181818" stroke-width="2"/>
    <path d="M100 31 L106 43 L119 45 L109 54 L111 67 L100 61 L89 67 L91 54 L81 45 L94 43 Z" fill="#333333" stroke="#181818" stroke-width="2"/>
  </g>
</svg>